# xmcd
#
# Track frame offsets:
#	150
#	27203
#	46652
#	62999
#	80610
#	98283
#	119185
#	140841
#	158674
#	181481
#	196952
#	221045
#	239550
#	256845
#	275019
#	296202
#
# Disc length: 4176 seconds
#
# Revision: 0
# Processed by: cddbd v1.5.1PL0 Copyright (c) Steve Scherf et al.
# Submitted via: dBpowerAMP V4.0
#
DISCID=f5104e10
DTITLE=Craig David - Craig David Special
DYEAR=1900
DGENRE=Rap
TTITLE0=Slicker than your average
TTITLE1=Fin me in
TTITLE2=What's your flava
TTITLE3=Can't be missing round
TTITLE4=Hidden agenda
TTITLE5=Rendez vouz
TTITLE6=Rije and fal
TTITLE7=Days
TTITLE8=Spanish
TTITLE9=Walking away
TTITLE10=You don't miss your water
TTITLE11=Time to party
TTITLE12=2 steps back
TTITLE13=Follow me
TTITLE14=What's changed
TTITLE15=Booty man
EXTD=Craig David Special
EXTT0=
EXTT1=
EXTT2=
EXTT3=
EXTT4=
EXTT5=
EXTT6=
EXTT7=
EXTT8=
EXTT9=
EXTT10=
EXTT11=
EXTT12=
EXTT13=
EXTT14=
EXTT15=
PLAYORDER=
